<?xml version="1.0" encoding="UTF-8"?>
<svg xmlns="http://www.w3.org/2000/svg" xmlns:xlink="http://www.w3.org/1999/xlink" viewBox="0 0 398.97 385.89">
  <defs>
    <style>
      .cls-1 {
        fill: url(#linear-gradient-2);
        mix-blend-mode: multiply;
      }

      .cls-2 {
        fill: #fff;
      }

      .cls-3 {
        fill: url(#linear-gradient-4);
      }

      .cls-4 {
        fill: url(#linear-gradient-3);
      }

      .cls-5 {
        fill: url(#linear-gradient-5);
      }

      .cls-6 {
        isolation: isolate;
      }

      .cls-7 {
        fill: none;
        stroke: #892000;
        stroke-miterlimit: 10;
      }

      .cls-8 {
        fill: url(#linear-gradient-6);
      }

      .cls-9 {
        fill: url(#linear-gradient);
      }
    </style>
    <linearGradient id="linear-gradient" x1="134.13" y1="9.08" x2="263.08" y2="412.67" gradientUnits="userSpaceOnUse">
      <stop offset="0" stop-color="#fc6c00"/>
      <stop offset="1" stop-color="#a02900"/>
    </linearGradient>
    <linearGradient id="linear-gradient-2" x1="203.13" y1="258.86" x2="255.36" y2="351.03" gradientUnits="userSpaceOnUse">
      <stop offset="0" stop-color="#fc6c00" stop-opacity="0"/>
      <stop offset=".68" stop-color="#be3f00" stop-opacity=".67"/>
      <stop offset="1" stop-color="#a02900"/>
    </linearGradient>
    <linearGradient id="linear-gradient-3" x1="192.93" y1="187.02" x2="209.72" y2="129.92" gradientUnits="userSpaceOnUse">
      <stop offset="0" stop-color="#fc6c00"/>
      <stop offset=".44" stop-color="#d44f00" stop-opacity=".57"/>
      <stop offset="1" stop-color="#a02900" stop-opacity="0"/>
    </linearGradient>
    <linearGradient id="linear-gradient-4" x1="180.48" y1="52.91" x2="289.31" y2="393.51" xlink:href="#linear-gradient"/>
    <linearGradient id="linear-gradient-5" x1="391.13" y1="56.82" x2="161.38" y2="343" xlink:href="#linear-gradient-3"/>
    <linearGradient id="linear-gradient-6" x1="181.68" y1="241.26" x2="161.53" y2="106.9" xlink:href="#linear-gradient-3"/>
  </defs>
  <g class="cls-6">
    <g id="Layer_2" data-name="Layer 2">
      <g id="LOGO">
        <g>
          <g id="OBJECT">
            <path class="cls-9" d="M371.5,275.83l-74.68,54.26c-3.71,2.17-7.19,4.16-10.38,5.98-.03.05-.1.1-.14.05-.74.23-3.67,1.06-8.07,1.96-3.72.78-8.47,1.61-13.82,2.17-.97.1-1.97.19-2.98.28h-.09c-.61.05-1.21.1-1.82.14-.61.05-1.23.09-1.85.1-.55.03-1.13.07-1.7.09-23.13.83-52.19-5.08-59.75-37.89-1.21-5.32-1.78-10.24-1.78-14.79,0-.73.02-1.46.05-2.18.02-.57.05-1.14.1-1.7,0-.1,0-.21.02-.33.03-.45.09-.9.14-1.35.03-.33.07-.68.12-1,.07-.55.16-1.11.24-1.65.1-.52.19-1.04.31-1.56.05-.31.12-.62.19-.94.31-1.26.66-2.49,1.06-3.69.16-.49.33-.95.5-1.44.02-.03.03-.07.05-.1.21-.55.43-1.11.68-1.65.24-.55.5-1.11.78-1.66.26-.54.55-1.07.85-1.61.31-.55.64-1.13.99-1.66.29-.47.61-.92.92-1.37.23-.35.49-.69.73-1.02.47-.61.94-1.21,1.44-1.8.38-.45.78-.9,1.18-1.33.4-.43.81-.85,1.25-1.26.42-.42.85-.81,1.28-1.21.42-.36.83-.73,1.25-1.07.07-.05.14-.12.21-.16.43-.36.87-.71,1.32-1.04.47-.36.95-.71,1.46-1.06.49-.35.99-.68,1.51-1,.42-.28.85-.54,1.28-.8,1.18-.69,2.39-1.35,3.64-1.94.5-.26.99-.49,1.49-.71.61-.28,1.21-.54,1.82-.78.57-.24,1.18-.47,1.77-.69,1.2-.45,2.41-.87,3.64-1.23.62-.19,1.25-.36,1.87-.54.62-.17,1.26-.35,1.91-.48,16.77-4.07,36.83-2.46,54.19,3.78.07.05.12.05.12.05,0,0,26.37-19.54,34.06-56.16,0,0-55.88-9.37-62.83-21.29-6.37-10.88-6.93-20.3-33.26-27.65v-.02s0-.03-.02-.05c-2.62-.73-5.44-1.42-8.64-2.11-8.77-1.92-15.76-3.45-21.32-4.73h-.02c-16.53-3.66-20.35-4.59-20.35-4.59,0,0-1-20.74,0-45.14l-.02.02c-1.51.59-98.45,39.72-117.54,154.73-2.81-9.41-33.03-18-53.93-27.21.49-4.37,1.4-8.73,2.81-13.03L54.72,45.68C63.48,18.74,88.58.5,116.91.5h165.14c28.32,0,53.44,18.24,62.19,45.18l51.03,157.05c8.75,26.94-.85,56.46-23.77,73.1Z"/>
            <path class="cls-1" d="M278.24,338.06c-20.27,4.22-71.6,10.14-82.01-35.11-7.57-33.06,9.89-50.91,34.23-56.81-21,12.62-33.32,39.31-20.32,64.75,16.64,32.56,52.13,30.16,68.09,27.17Z"/>
            <path class="cls-2" d="M192.74,137.99l30,6.86s-10.64-32.8-20.34-49.26c0,0-4.48,22.5-9.65,42.4Z"/>
            <path class="cls-4" d="M192.74,137.99l30,6.86s-10.64-32.8-20.34-49.26c0,0-4.48,22.5-9.65,42.4Z"/>
            <path class="cls-3" d="M237.65,170.81l-41.72-8.51s4.99,11.89,19.02,14.76c13.2,2.7,22.71-6.24,22.71-6.24Z"/>
            <path class="cls-5" d="M286.3,336.12c-23.16,13.19-50.01,20.71-78.58,20.71-47.63,0-90.37-20.88-119.57-53.94,6.73-35.66,32.73-65.69,77.39-71.83,65.17-8.9,116.41,17.43,119.11,18.85-42.55-15.26-101.2-2.84-88.43,53.04,12.67,55.05,85.88,34.38,90.08,33.17Z"/>
            <path class="cls-8" d="M172.38,133.37l-15.88-3.81c-4.9-1.18-7.62-6.43-5.73-11.1,3.18-7.85,9.52-19.59,21.61-30.23-1,24.41,0,45.14,0,45.14Z"/>
          </g>
          <path class="cls-7" d="M371.5,275.83l-74.68,54.26-58.92,42.8c-22.92,16.66-53.94,16.66-76.86,0L27.45,275.83C8.19,261.83-1.65,238.76.9,215.75c.49-4.37,1.4-8.73,2.81-13.03L54.72,45.68C63.48,18.74,88.58.5,116.91.5h165.14c28.32,0,53.44,18.24,62.19,45.18l51.03,157.05c8.75,26.94-.85,56.46-23.77,73.1Z"/>
        </g>
      </g>
    </g>
  </g>
</svg>